# xmcd
#
# Track frame offsets: 
#        150
#        15058
#        28348
#        43945
#        58583
#        70973
#        85958
#        98965
#        113310
#        126753
#        141120
#        156770
#        171085
#        186588
#        201805
#        217233
#        232285
#        247228
#
# Disc length: 3472 seconds
#
# Revision: 8
# Processed by: cddbd v1.5.2PL0 Copyright (c) Steve Scherf et al.
# Submitted via: ExactAudioCopyFreeDBPlugin 1.0
#
DISCID=0c0d8e12
DTITLE=Bessie Smith - The Essential Bessie Smith [CD 1)
DYEAR=1997
DGENRE=Blues
TTITLE0=Aggravatin' Papa
TTITLE1=Baby Won't You Please Come Home
TTITLE2='Taint Nobody's Bizness If I Do
TTITLE3=Jail-House Blues
TTITLE4=Graveyard Dream Blues
TTITLE5=Ticket Agent, Ease Your Window Down
TTITLE6=Boweavil Blues
TTITLE7=Weeping Willow Blues
TTITLE8=Dying Gambler's Blues
TTITLE9=St Louis Blues
TTITLE10=You've Been a Good Ole Wagon
TTITLE11=Cake Walkin' Babies from Home
TTITLE12=Careless Love Blues
TTITLE13=I Ain't Goin' to Play Second Fiddle
TTITLE14=At the Christmas Ball
TTITLE15=Jazzbo Brown from Memphis Town
TTITLE16=Backwater Blues
TTITLE17=After You've Gone
EXTD=ID3G: 0
EXTT0=
EXTT1=
EXTT2=
EXTT3=
EXTT4=
EXTT5=
EXTT6=
EXTT7=
EXTT8=
EXTT9=
EXTT10=
EXTT11=
EXTT12=
EXTT13=
EXTT14=
EXTT15=
EXTT16=
EXTT17=
PLAYORDER=
